<?xml version="1.0" encoding="UTF-8"?>
<!DOCTYPE svg PUBLIC "-//W3C//DTD SVG 1.1//EN" "http://www.w3.org/Graphics/SVG/1.1/DTD/svg11.dtd">
<!-- Creator: CorelDRAW X7 -->
<svg xmlns="http://www.w3.org/2000/svg" xml:space="preserve" width="3000px" height="3000px" version="1.1" style="shape-rendering:geometricPrecision; text-rendering:geometricPrecision; image-rendering:optimizeQuality; fill-rule:evenodd; clip-rule:evenodd"
viewBox="0 0 3000 3000"
 xmlns:xlink="http://www.w3.org/1999/xlink">
 <defs>
  <style type="text/css">
   <![CDATA[
    .fil1 {fill:#004282}
    .fil0 {fill:#00A651}
    .fil2 {fill:#004282;fill-rule:nonzero}
    .fil3 {fill:#00A651;fill-rule:nonzero}
   ]]>
  </style>
 </defs>
 <g id="Layer_x0020_1">
  <metadata id="CorelCorpID_0Corel-Layer"/>
  <g id="_2271036874992">
   <g>
    <path class="fil0" d="M2289 263c-54,695 -263,1403 -776,1888 449,-456 595,-1162 595,-1770l181 -118 0 0z"/>
    <path class="fil1" d="M605 1378c204,221 429,296 689,127 234,-152 408,-483 526,-935l237 -155c0,853 -363,1703 -766,1872 -250,-168 -564,-513 -686,-909l0 0zm1791 -1186l-49 33c-53,670 -257,1338 -734,1840 523,-474 735,-1203 783,-1873l0 0z"/>
   </g>
   <g>
    <g>
     <path class="fil2" d="M0 2430c53,1 107,-1 160,1 52,1 106,44 100,98 5,39 -25,70 -59,87 39,16 65,54 58,96 5,50 -44,89 -92,96l-167 0 0 -378zm94 80l0 0c1,22 1,43 0,65 28,8 76,1 74,-36 -5,-34 -47,-35 -74,-29zm1 141l0 0c-1,23 -1,45 -1,68 28,3 76,3 74,-35 -3,-37 -46,-34 -73,-33z"/>
    </g>
    <g>
     <path class="fil2" d="M420 2431c40,-2 80,-1 120,-1 36,125 79,247 118,371 -33,-1 -66,0 -99,-1 -4,-12 -9,-25 -13,-37 -44,-1 -88,-1 -131,0 -5,12 -9,25 -14,38 -33,-1 -65,-1 -98,0 38,-124 81,-246 117,-370zm23 238l0 0c24,2 49,2 74,1 -10,-35 -28,-71 -37,-107 -2,2 -26,73 -37,106z"/>
    </g>
    <g>
     <path class="fil2" d="M705 2430c64,2 134,-9 192,22 53,24 90,77 93,134 2,44 2,92 -22,132 -26,52 -83,83 -141,90l-122 0c0,-126 0,-252 0,-378zm93 94l0 0c0,61 1,122 0,183 32,-1 67,-13 84,-40 17,-24 13,-54 11,-81 -9,-41 -53,-66 -95,-62z"/>
    </g>
    <g>
     <path class="fil2" d="M1114 2466c6,-13 3,-40 25,-36 34,1 68,-2 102,1 43,122 78,247 121,369 -33,0 -66,1 -100,0 -4,-13 -9,-25 -13,-38 -44,0 -87,1 -130,0 -5,12 -8,26 -12,38 -31,0 -67,0 -101,1 37,-112 72,-223 108,-335zm33 205l0 0c24,0 49,-1 73,-1 -9,-36 -23,-71 -34,-107 -15,32 -27,72 -39,108z"/>
    </g>
    <path class="fil2" d="M1409 2428c9,0 20,1 27,1 52,54 114,122 170,174 0,-58 0,-115 0,-175 30,1 60,1 89,0 0,126 -1,250 1,375 -7,0 -15,0 -23,0 -59,-58 -114,-121 -175,-177 5,59 0,118 3,177 -31,1 -61,1 -92,1 1,-126 2,-250 0,-376z"/>
    <g>
     <path class="fil3" d="M1869 2430c52,1 106,-4 158,7 34,11 68,29 85,61 27,48 22,112 -13,155 -33,39 -89,48 -139,52 1,34 1,68 1,103l-92 0c0,-126 -1,-252 0,-378zm92 77l0 0c0,33 0,65 0,97 33,7 77,-9 76,-47 2,-38 -42,-56 -76,-50z"/>
    </g>
    <g>
     <path class="fil3" d="M2306 2438c54,-14 117,-11 165,21 93,52 121,185 56,268 -56,83 -183,106 -267,50 -56,-35 -93,-98 -89,-163 -2,-79 58,-151 135,-176zm18 94l0 0c-29,15 -50,42 -56,73 -10,56 43,113 102,110 60,-1 109,-63 92,-119 -11,-58 -84,-89 -138,-64z"/>
    </g>
    <path class="fil3" d="M2640 2432c30,-1 59,-1 89,0 21,53 44,106 65,159 25,-52 44,-106 67,-159 29,-1 59,-1 88,0 19,120 32,240 51,360l0 16 -106 0c-8,-55 -11,-111 -18,-166 -29,54 -53,110 -79,166l-2 0c-29,-54 -53,-110 -78,-165 -13,54 -12,110 -21,165l-109 0c21,-125 34,-251 53,-376z"/>
   </g>
  </g>
 </g>
</svg>
