<?xml version="1.0" encoding="UTF-8"?>
<!DOCTYPE svg PUBLIC "-//W3C//DTD SVG 1.1//EN" "http://www.w3.org/Graphics/SVG/1.1/DTD/svg11.dtd">
<!-- Creator: CorelDRAW X7 -->
<svg xmlns="http://www.w3.org/2000/svg" xml:space="preserve" width="3000px" height="3000px" version="1.1" style="shape-rendering:geometricPrecision; text-rendering:geometricPrecision; image-rendering:optimizeQuality; fill-rule:evenodd; clip-rule:evenodd"
viewBox="0 0 3000 3000"
 xmlns:xlink="http://www.w3.org/1999/xlink">
 <defs>
  <style type="text/css">
   <![CDATA[
    .fil0 {fill:#650173}
    .fil1 {fill:#650173;fill-rule:nonzero}
   ]]>
  </style>
 </defs>
 <g id="Layer_x0020_1">
  <metadata id="CorelCorpID_0Corel-Layer"/>
  <g id="_1756221671360">
   <path class="fil0" d="M826 1632c-45,-86 -57,-173 -43,-268 17,-106 85,-242 140,-334 19,-32 38,-63 57,-94l0 -202c-44,69 -93,148 -148,241 -62,103 -136,252 -154,373 -18,115 -3,225 54,333 21,41 49,79 82,118 46,51 91,90 131,98l245 0 0 -1290c25,-39 51,-77 76,-116 26,-38 52,-77 77,-116 50,-77 101,-154 151,-231 2,-2 4,-5 6,-9l63 -96c-26,-34 -39,-39 -63,-39 -33,0 -44,8 -95,86 -43,65 -88,132 -151,231 -58,88 -111,167 -171,257l0 1217 -121 0c-21,-12 -57,-50 -69,-64 -25,-30 -49,-62 -67,-95zm596 265l0 -1410c-16,25 -33,50 -50,75 -19,29 -38,58 -57,86l0 1249 107 0zm547 235l-284 0 0 -1910c-16,-24 -31,-46 -45,-67 -21,31 -41,63 -62,94l0 1883 -547 0c-40,0 -51,-28 -51,-61l0 -24 -105 0c2,51 7,83 22,111 32,64 79,80 134,80l938 0c55,0 102,-16 134,-80 24,-45 24,-103 24,-230 0,-47 -2,-62 11,-76 54,-56 99,-111 130,-171 57,-108 72,-218 54,-333 -18,-121 -92,-270 -154,-373 -156,-262 -257,-409 -358,-561l0 1483 107 0 0 -1126c54,85 108,171 160,259 55,92 123,228 140,334 14,95 2,182 -43,268 -29,53 -71,102 -113,146 -43,46 -41,93 -41,151l0 142c0,33 -11,61 -51,61z"/>
   <g>
    <path class="fil0" d="M976 2431c-11,26 -16,57 -16,91 1,60 0,112 1,172 1,29 8,54 18,64l-119 0c15,-24 18,-45 20,-76 1,-20 2,-42 2,-65l-116 14 0 0c0,18 1,35 2,51 1,31 5,52 20,76l-119 0c9,-10 17,-35 18,-64 1,-60 0,-112 1,-172 0,-34 -5,-65 -16,-91l117 0c-10,10 -17,32 -19,60 -2,24 -3,54 -4,85l115 -14c0,-26 -1,-50 -3,-71 -2,-28 -9,-50 -19,-60l117 0z"/>
    <path class="fil0" d="M1147 2642l41 -104 38 97 -79 7zm99 43l15 36c4,12 -1,20 -8,37l125 0c-10,-6 -28,-32 -38,-57l-107 -270 -107 0c4,13 8,23 5,32l-97 247c-2,7 -18,30 -31,48l121 0c-7,-19 -12,-25 -8,-38l10 -24 120 -11z"/>
    <path class="fil0" d="M1818 2642l41 -104 38 97 -79 7zm99 43l15 36c4,12 -1,20 -8,37l125 0c-10,-6 -28,-32 -38,-57l-107 -270 -107 0c4,13 8,23 5,32l-96 247c-3,7 -19,30 -32,48l121 0c-7,-19 -12,-25 -8,-38l10 -24 120 -11z"/>
    <path class="fil0" d="M1514 2431l-115 0c8,21 17,44 17,76l0 184c0,17 -1,25 -5,37l-11 30 209 0c12,0 24,3 30,6 7,-33 14,-66 21,-99 -30,18 -36,25 -55,25l-108 0 0 -183c0,-32 9,-55 17,-76z"/>
    <path class="fil0" d="M2185 2431l-115 0c8,21 17,44 17,76l0 184c0,17 -1,25 -5,37l-11 30 210 0c11,0 23,3 29,6 7,-33 14,-66 21,-99 -30,18 -36,25 -55,25l-108 0 0 -183c0,-32 9,-55 17,-76z"/>
   </g>
   <path class="fil1" d="M670 2998l29 0 0 -129 -29 0 0 129zm224 0l24 0 0 -129 -28 0 0 79 -61 -79 -26 0 0 129 28 0 0 -82 63 82zm246 -65l0 0c0,-37 -28,-64 -69,-64l-50 0 0 129 50 0c41,0 69,-28 69,-65zm-30 0l0 1c0,22 -15,38 -39,38l-22 0 0 -78 22 0c24,0 39,16 39,39zm259 0l0 0c0,-37 -29,-67 -69,-67 -40,0 -69,30 -69,67l0 1c0,36 29,66 69,66 40,0 69,-30 69,-67zm-30 0l0 1c0,22 -16,40 -39,40 -23,0 -39,-19 -39,-41l0 0c0,-22 16,-40 39,-40 23,0 39,18 39,40zm218 65l24 0 0 -129 -28 0 0 79 -61 -79 -26 0 0 129 28 0 0 -82 63 82zm127 0l98 0 0 -26 -70 0 0 -27 61 0 0 -25 -61 0 0 -26 69 0 0 -25 -97 0 0 129zm289 -38l0 -1c0,-22 -15,-32 -41,-39 -22,-5 -28,-8 -28,-17l0 0c0,-6 6,-11 17,-11 11,0 22,5 33,13l15 -22c-13,-10 -29,-16 -48,-16 -26,0 -45,15 -45,39l0 0c0,26 17,33 43,40 21,5 26,9 26,16l0 0c0,8 -7,13 -19,13 -15,0 -27,-7 -38,-16l-17 20c15,14 35,21 55,21 27,0 47,-15 47,-40zm98 38l28 0 0 -129 -28 0 0 129zm229 0l30 0 -56 -130 -26 0 -55 130 29 0 12 -29 54 0 12 29zm-39 -96l17 42 -34 0 17 -42z"/>
  </g>
 </g>
</svg>
